<svg width="796" height="220" viewBox="0 0 796 220" fill="none" xmlns="http://www.w3.org/2000/svg">
<circle cx="100" cy="100" r="82.5" stroke="white" stroke-width="35"/>
<mask id="path-2-inside-1_143_24" fill="white">
<path d="M220 40H348V200H220V40Z"/>
</mask>
<path d="M348 200V235H383V200H348ZM220 200H185V235H220V200ZM313 40V200H383V40H313ZM348 165H220V235H348V165ZM255 200V40H185V200H255Z" fill="white" mask="url(#path-2-inside-1_143_24)"/>
<mask id="path-4-inside-2_143_24" fill="white">
<path d="M368 40H468V200H368V40Z"/>
</mask>
<path d="M368 40V5H333V40H368ZM368 75H468V5H368V75ZM403 200V40H333V200H403Z" fill="white" mask="url(#path-4-inside-2_143_24)"/>
<mask id="path-6-inside-3_143_24" fill="white">
<path d="M488 40H616V200H488V40Z"/>
</mask>
<path d="M488 40V5H453V40H488ZM616 40H651V5H616V40ZM488 75H616V5H488V75ZM581 40V200H651V40H581ZM523 200V40H453V200H523Z" fill="white" mask="url(#path-6-inside-3_143_24)"/>
<circle cx="716" cy="120" r="62.5" stroke="white" stroke-width="35"/>
<path d="M123 129H81L139 220H180.5L123 129Z" fill="white"/>
</svg>
